# AST/ASF file generated using VICON BodyLanguage
# -----------------------------------------------
:version 1.10
:name VICON
:units
  mass 1.0
  length 0.45
  angle deg
:documentation
   .ast/.asf automatically generated from VICON data using
   VICON BodyBuilder and BodyLanguage model FoxedUp or BRILLIANT.MOD
:root
   order TX TY TZ RX RY RZ
   axis XYZ
   position 0 0 0  
   orientation 0 0 0 
:bonedata
  begin
     id 1 
     name lhipjoint
     direction 0.606768 -0.715223 0.346827 
     length 2.41543 
     axis 0 0 0  XYZ
  end
  begin
     id 2 
     name lfemur
     direction 0.34202 -0.939693 0  
     length 7.2778  
     axis 0 0 20  XYZ
    dof rx ry rz
    limits (-160.0 20.0)
           (-70.0 70.0)
           (-60.0 70.0)
  end
  begin
     id 3 
     name ltibia
     direction 0.34202 -0.939693 0   
     length 7.61811   
     axis 0 0 20   XYZ
    dof rx
    limits (-10.0 170.0)
  end
  begin
     id 4 
     name lfoot
     direction 0.0823924 -0.226371 0.97055   
     length 2.33618   
     axis -90 7.62852e-016 20   XYZ
    dof rx rz
    limits (-45.0 90.0)
           (-70.0 20.0)
  end
  begin
     id 5 
     name ltoes
     direction 1.53554e-011 -4.21934e-011 1   
     length 1.17015   
     axis -90 7.62852e-016 20   XYZ
    dof rx
    limits (-90.0 20.0)
  end
  begin
     id 6 
     name rhipjoint
     direction -0.6077 -0.714582 0.346516   
     length 2.4176  
     axis 0 0 0  XYZ 
  end
  begin
     id 7 
     name rfemur
     direction -0.34202 -0.939693 0   
     length 7.28127   
     axis 0 0 -20   XYZ
    dof rx ry rz
    limits (-160.0 20.0)
           (-70.0 70.0)
           (-70.0 60.0)
  end
  begin
     id 8 
     name rtibia
     direction -0.34202 -0.939693 0   
     length 7.77648   
     axis 0 0 -20   XYZ
    dof rx
    limits (-10.0 170.0)
 end
 begin
     id 9 
     name rfoot
     direction -0.0809463 -0.222398 0.97159   
     length 2.37533  
     axis -90 -7.62852e-016 -20   XYZ
    dof rx rz
    limits (-45.0 90.0)
           (-20.0 70.0)
  end
  begin
     id 10 
     name rtoes
     direction -1.53568e-011 -4.21714e-011 1   
     length 1.18972   
     axis -90 -7.62852e-016 -20   XYZ
    dof rx
    limits (-90.0 20.0)
  end
  begin
     id 11 
     name lowerback
     direction 0.010968 0.991932 -0.126297   
     length 2.21698   
     axis 0 0 0   XYZ
    dof rx ry rz
    limits (-20.0 45.0)
           (-30.0 30.0)
           (-30.0 30.0)
  end
  begin
     id 12 
     name upperback
     direction 0.0167007 0.997503 -0.0686276   
     length 2.22371   
     axis 0 0 0   XYZ
    dof rx ry rz
    limits (-20.0 45.0)
           (-30.0 30.0)
           (-30.0 30.0)
  end
  begin
     id 13 
     name thorax
     direction 0.0111721 0.999885 -0.0102878   
     length 2.25242   
     axis 0 0 0   XYZ
    dof rx ry rz
    limits (-20.0 45.0)
           (-30.0 30.0)
           (-30.0 30.0)
  end
  begin
     id 14 
     name lowerneck
     direction -0.0120265 0.990428 0.137508   
     length 1.57674   
     axis 0 0 0   XYZ
    dof rx ry rz
    limits (-20.0 45.0)
           (-30.0 30.0)
           (-30.0 30.0)
  end
  begin
     id 15 
     name upperneck
     direction 0.0175669 0.998907 0.0433089   
     length 1.5618   
     axis 0 0 0   XYZ
    dof rx ry rz
    limits (-20.0 45.0)
           (-30.0 30.0)
           (-30.0 30.0)
  end
  begin
     id 16
     name head
     direction 0.00754609 0.99997 0.00185367  
     length 1.60579  
     axis 0 0 0   XYZ
    dof rx ry rz
    limits (-20.0 45.0)
           (-30.0 30.0)
           (-30.0 30.0)
  end
  begin
     id 17 
     name lclavicle
     direction 0.885866 0.429166 -0.176231  
     length 3.44967  
     axis 0 0 0   XYZ
    dof ry rz
    limits (-20.0 10.0)
           (0.0 20.0)
  end
  begin
     id 18 
     name lhumerus
     direction 1 -4.48973e-011 -1.90255e-027   
     length 5.20607   
     axis 180 -30 -90   XYZ
    dof rx ry rz
    limits (-60.0 90.0)
           (-90.0 90.0)
           (-90.0 90.0)
  end
  begin
     id 19
     name lradius
     direction 1 -4.48956e-011 9.87925e-027   
     length 3.39961   
     axis 180 -30 -90   XYZ
    dof rx
    limits (-10.0 170.0)
  end
  begin
     id 20
     name lwrist
     direction 1 -4.48985e-011 1.73247e-026   
     length 1.6998   
     axis -9.60847e-015 90 90   XYZ
    dof ry
    limits (-180.0 0.0)
 end
  begin
     id 21 
     name lhand
     direction 1 -4.48798e-011 3.46119e-026   
     length 0.519693   
     axis -2.21073e-014 90 90   XYZ
    dof rx rz
    limits (-90.0 90.0)
           (-45.0 45.0)
  end
  begin
     id 22 
     name lfingers
     direction 1 -4.48938e-011 6.92797e-026   
     length 0.41899   
     axis -4.42155e-014 90 90   XYZ
    dof rx
    limits (0.0 90.0)
  end
  begin
     id 23
     name lthumb
     direction 0.707107 -6.34952e-011 0.707107   
     length 0.601588   
     axis -90 45 6.0103e-014   XYZ
    dof rx rz
    limits (-45.0 45.0)
           (-45.0 45.0)
  end
  begin
     id 24 
     name rclavicle
     direction -0.866736 0.456792 -0.200276   
     length 3.45032  
     axis 0 0 0   XYZ 
    dof ry rz
    limits (-10.0 20.0)
           (-20.0 0.0)
  end
  begin
     id 25 
     name rhumerus
     direction -1 -4.4897e-011 8.65094e-028  
     length 5.32214   
     axis 180 30 90   XYZ
    dof rx ry rz
    limits (-90.0 60.0)
           (-90.0 90.0)
           (-90.0 90.0)
  end
  begin
     id 26 
     name rradius
     direction -1 -4.48987e-011 1.08427e-026   
     length 3.51208   
     axis 180 30 90   XYZ
    dof rx
    limits (-10.0 170.0)
  end
  begin
     id 27 
     name rwrist
     direction -1 -4.48961e-011 1.73222e-026   
     length 1.75604   
     axis -9.60847e-015 -90 -90   XYZ
    dof ry
    limits (-180.0 0.0)
  end
  begin
     id 28
     name rhand
     direction -1 -4.48895e-011 3.46314e-026   
     length 0.586681   
     axis -2.21073e-014 -90 -90   XYZ
    dof rx rz
    limits (-90.0 90.0)
           (-45.0 45.0)
  end
  begin
     id 29
     name rfingers
     direction -1 -4.48968e-011 6.92916e-026   
     length 0.472997   
     axis -4.42155e-014 -90 -90   XYZ
    dof rx
    limits (0.0 90.0)
  end
  begin
     id 30
     name rthumb
     direction -0.707107 -6.34848e-011 0.707107   
     length 0.679133   
     axis -90 -45 -6.0103e-014   XYZ
    dof rx rz
    limits (-45.0 45.0)
           (-45.0 45.0)
  end
:hierarchy
  begin
    root lhipjoint rhipjoint lowerback
    lhipjoint lfemur
    lfemur ltibia
    ltibia lfoot
    lfoot ltoes
    rhipjoint rfemur
    rfemur rtibia
    rtibia rfoot
    rfoot rtoes
    lowerback upperback
    upperback thorax
    thorax lowerneck lclavicle rclavicle
    lowerneck upperneck
    upperneck head
    lclavicle lhumerus
    lhumerus lradius
    lradius lwrist
    lwrist lhand lthumb
    lhand lfingers
    rclavicle rhumerus
    rhumerus rradius
    rradius rwrist
    rwrist rhand rthumb
    rhand rfingers
  end

#!OML:ASF H:\Dans Jumps\Project 1\Capture day 1\Session 1\subject.ASF
:FULLY-SPECIFIED
:DEGREES
41
root 0.568368 17.5441 -13.9389 6.1417 -1.89907 -1.59747
lowerback -3.4058 -0.695835 0.158244
upperback 2.27667 -1.01523 1.94099
thorax 4.29202 -0.531113 1.8437
lowerneck -14.5391 0.283598 -2.38782
upperneck 22.7675 0.878116 0.443869
head 9.5844 0.247965 0.664047
rclavicle -4.22417e-015 7.15625e-015
rhumerus -26.0524 -15.5224 -77.9767
rradius 24.4479
rwrist 32.1957
rhand -19.3064 -26.1815
rfingers 7.12502
rthumb 7.00935 -56.0454
lclavicle -4.22417e-015 7.15625e-015
lhumerus -22.6513 -3.11375 88.2468
lradius 19.6264
lwrist 3.86432
lhand -23.4524 -3.29456
lfingers 7.12502
lthumb 3.00625 26.664
rfemur -11.6121 -3.78868 20.3662
rtibia 20.4561
rfoot -13.9035 -1.21634
rtoes 13.6634
lfemur -10.9509 7.79046 -17.8171
ltibia 18.4215
lfoot -11.4425 5.78817
ltoes -3.10865
42
root 0.56935 17.5439 -13.9391 6.13495 -1.88564 -1.60538
lowerback -3.40104 -0.695868 0.157906
upperback 2.28121 -1.01554 1.94735
thorax 4.29419 -0.531407 1.85049
lowerneck -14.5524 0.287868 -2.39005
upperneck 22.8166 0.885063 0.445215
head 9.60408 0.250651 0.666088
rclavicle -3.23025e-015 7.55382e-015
rhumerus -26.0598 -15.5588 -77.9603
rradius 24.4322
rwrist 32.2223
rhand -19.3087 -26.1774
rfingers 7.12502
rthumb 7.00713 -56.0415
lclavicle -3.23025e-015 7.55382e-015
lhumerus -22.6368 -3.1067 88.2532
lradius 19.6268
lwrist 3.86364
lhand -23.4524 -3.29431
lfingers 7.12502
lthumb 3.00619 26.6642
rfemur -11.605 -3.78377 20.3722
rtibia 20.4588
rfoot -13.9054 -1.23606
rtoes 13.6578
lfemur -10.9544 7.78459 -17.8098
ltibia 18.4345
lfoot -11.4442 5.77868
ltoes -3.15724
43
root 0.570316 17.5437 -13.9394 6.12881 -1.87504 -1.61226
lowerback -3.39831 -0.694805 0.155858
upperback 2.28529 -1.01428 1.95304
thorax 4.297 -0.530963 1.85764
lowerneck -14.5635 0.292829 -2.39165
upperneck 22.866 0.892171 0.448934
head 9.62345 0.253732 0.668862
rclavicle -2.16178e-014 2.10712e-014
rhumerus -26.0658 -15.6048 -77.9426
rradius 24.4113
rwrist 32.2609
rhand -19.322 -26.161
rfingers 7.12502
rthumb 6.99429 -56.0255
lclavicle -2.16178e-014 2.10712e-014
lhumerus -22.6237 -3.10213 88.2574
lradius 19.6304
lwrist 3.86478
lhand -23.4462 -3.28155
lfingers 7.12502
lthumb 3.01216 26.6769
rfemur -11.5984 -3.77516 20.3769
rtibia 20.4606
rfoot -13.9065 -1.25686
rtoes 13.6518
lfemur -10.958 7.77886 -17.8039
ltibia 18.4481
lfoot -11.4473 5.77157
ltoes -3.19908
44
root 0.571361 17.5435 -13.9395 6.12389 -1.86751 -1.61817
lowerback -3.39739 -0.692272 0.153767
upperback 2.28859 -1.01101 1.95746
thorax 4.29993 -0.529498 1.86363
lowerneck -14.5729 0.297653 -2.38995
upperneck 22.9147 0.898218 0.452568
head 9.64232 0.256605 0.670914
rclavicle -1.17283e-014 -2.38542e-015
rhumerus -26.0702 -15.6597 -77.9248
rradius 24.387
rwrist 32.3076
rhand -19.3385 -26.1508
rfingers 7.12502
rthumb 6.97838 -56.0157
lclavicle -1.17283e-014 -2.38542e-015
lhumerus -22.6116 -3.10331 88.2597
lradius 19.6355
lwrist 3.86879
lhand -23.4372 -3.25903
lfingers 7.12502
lthumb 3.02087 26.6993
rfemur -11.5931 -3.76769 20.38
rtibia 20.4617
rfoot -13.9071 -1.27322
rtoes 13.6468
lfemur -10.9623 7.77555 -17.8001
ltibia 18.4618
lfoot -11.45 5.76543
ltoes -3.23441
45
root 0.572488 17.5434 -13.9396 6.11979 -1.86124 -1.62248
lowerback -3.39815 -0.689804 0.150277
upperback 2.29084 -1.00775 1.96162
thorax 4.30274 -0.528068 1.87011
lowerneck -14.5811 0.302938 -2.38722
upperneck 22.965 0.904704 0.455857
head 9.66151 0.259716 0.672735
rclavicle -3.47873e-016 2.3059e-014
rhumerus -26.0741 -15.7185 -77.9063
rradius 24.361
rwrist 32.3602
rhand -19.3539 -26.1399
rfingers 7.12502
rthumb 6.96358 -56.0053
lclavicle -3.47873e-016 2.3059e-014
lhumerus -22.6016 -3.11121 88.2616
lradius 19.6435
lwrist 3.87887
lhand -23.4242 -3.23459
lfingers 7.12502
lthumb 3.03345 26.7236
rfemur -11.5887 -3.76505 20.3808
rtibia 20.463
rfoot -13.9078 -1.28357
rtoes 13.6334
lfemur -10.9657 7.77232 -17.7988
ltibia 18.4742
lfoot -11.4533 5.76088
ltoes -3.26472
46
root 0.573659 17.5433 -13.9396 6.11686 -1.85625 -1.62512
lowerback -3.40057 -0.686766 0.146136
upperback 2.2923 -1.00367 1.96491
thorax 4.30564 -0.52623 1.87611
lowerneck -14.5875 0.307525 -2.38303
upperneck 23.0144 0.910064 0.458038
head 9.6801 0.262317 0.673776
rclavicle -1.73937e-015 -1.59028e-015
rhumerus -26.0772 -15.7797 -77.8884
rradius 24.3333
rwrist 32.4158
rhand -19.3692 -26.1293
rfingers 7.12502
rthumb 6.94878 -55.9953
lclavicle -1.73937e-015 -1.59028e-015
lhumerus -22.5947 -3.12903 88.2634
lradius 19.6564
lwrist 3.8939
lhand -23.4079 -3.20301
lfingers 7.12502
lthumb 3.04917 26.7549
rfemur -11.5862 -3.76506 20.3794
rtibia 20.4649
rfoot -13.9079 -1.28943
rtoes 13.6159
lfemur -10.9694 7.76998 -17.8001
ltibia 18.4854
lfoot -11.4551 5.75801
ltoes -3.29456
47
root 0.574872 17.5432 -13.9396 6.11539 -1.85125 -1.62513
lowerback -3.40546 -0.683998 0.140403
upperback 2.29311 -0.999851 1.96755
thorax 4.30929 -0.524562 1.8823
lowerneck -14.5918 0.311823 -2.38048
upperneck 23.0632 0.915157 0.461042
head 9.69809 0.264752 0.675335
rclavicle -1.1281e-014 1.90833e-014
rhumerus -26.0791 -15.84 -77.8716
rradius 24.3049
rwrist 32.4721
rhand -19.3899 -26.1055
rfingers 7.12502
rthumb 6.92878 -55.9721
lclavicle -1.1281e-014 1.90833e-014
lhumerus -22.5886 -3.1552 88.2655
lradius 19.6715
lwrist 3.91373
lhand -23.3857 -3.17232
lfingers 7.12502
lthumb 3.07063 26.7853
rfemur -11.5861 -3.7687 20.3751
rtibia 20.4679
rfoot -13.9076 -1.29196
rtoes 13.5918
lfemur -10.9735 7.76607 -17.8048
ltibia 18.4951
lfoot -11.4556 5.75771
ltoes -3.32676
48
root 0.57607 17.5431 -13.9396 6.11439 -1.84511 -1.62506
lowerback -3.41086 -0.681095 0.135666
upperback 2.29389 -0.995884 1.96943
thorax 4.31316 -0.522776 1.88714
lowerneck -14.5974 0.315663 -2.37519
upperneck 23.1135 0.919543 0.461731
head 9.71688 0.266821 0.675557
rclavicle 1.25731e-014 -1.63003e-014
rhumerus -26.0781 -15.9001 -77.8576
rradius 24.2753
rwrist 32.5237
rhand -19.4099 -26.0783
rfingers 7.12502
rthumb 6.90946 -55.9456
lclavicle 1.25731e-014 -1.63003e-014
lhumerus -22.5826 -3.1931 88.2669
lradius 19.6903
lwrist 3.9385
lhand -23.3649 -3.1406
lfingers 7.12502
lthumb 3.09067 26.8167
rfemur -11.5871 -3.77317 20.3709
rtibia 20.4724
rfoot -13.907 -1.29526
rtoes 13.5672
lfemur -10.978 7.75988 -17.8095
ltibia 18.5039
lfoot -11.4555 5.7602
ltoes -3.35747
49
root 0.577294 17.5429 -13.9397 6.11467 -1.83841 -1.62275
lowerback -3.417 -0.678142 0.131059
upperback 2.29395 -0.991777 1.96948
thorax 4.31665 -0.520882 1.89001
lowerneck -14.6017 0.319343 -2.36877
upperneck 23.1632 0.923525 0.461847
head 9.7353 0.268744 0.675331
rclavicle -3.68249e-014 3.02153e-014
rhumerus -26.0762 -15.957 -77.8472
rradius 24.2468
rwrist 32.5689
rhand -19.4342 -26.0435
rfingers 7.12502
rthumb 6.88601 -55.9116
lclavicle -3.68249e-014 3.02153e-014
lhumerus -22.5767 -3.23491 88.2653
lradius 19.7113
lwrist 3.96472
lhand -23.3427 -3.10945
lfingers 7.12502
lthumb 3.1121 26.8476
rfemur -11.5903 -3.77747 20.3642
rtibia 20.4777
rfoot -13.9063 -1.29885
rtoes 13.5513
lfemur -10.985 7.75039 -17.817
ltibia 18.5133
lfoot -11.4537 5.76724
ltoes -3.39515
